<svg xmlns="http://www.w3.org/2000/svg" xmlns:xlink="http://www.w3.org/1999/xlink" viewBox="0 0 20 15">
    <defs>
        <path fill="#FFF" d="M6.75 6.15V5.4q0-.55-.4-1-.4-.4-1-.4H1.4q-.55 0-1 .4-.4.45-.4 1v3.95q0 .6.4 1 .45.4 1 .4h3.95q.6 0 1-.4t.4-1v-.7q.6-.35.6-1.3 0-.8-.6-1.2M5.35 5q.4 0 .4.4v1.5l.45.05q.15.15.15.5t-.15.35l-.45.1v1.45q0 .4-.4.4H1.4q-.4 0-.4-.4V5.4q0-.4.4-.4h3.95m13.6-.6q-.45-.4-1-.4H14q-.6 0-1 .4-.4.45-.4 1v.75q-.6.4-.6 1.2v.1q0 .85.6 1.2v.7q0 .6.4 1t1 .4h3.95q.55 0 1-.4.4-.4.4-1V5.4q0-.55-.4-1m-1 .6q.4 0 .4.4v3.95q0 .4-.4.4H14q-.4 0-.4-.4V7.9l-.45-.1q-.15 0-.15-.35v-.1q0-.25.15-.4l.45-.05V5.4q0-.4.4-.4h3.95m-7.6 8v-1h-1v1h1m-1 1v1h1v-1h-1m1-9V4h-1v1h1m0-4V0h-1v1h1m0 2V2h-1v1h1m0 6V8h-1v1h1m0 2v-1h-1v1h1m0-4V6h-1v1h1z" id="a"/>
    </defs>
    <use xlink:href="#a"/>
</svg>
