<svg xmlns="http://www.w3.org/2000/svg" xmlns:xlink="http://www.w3.org/1999/xlink" viewBox="0 0 15 20">
    <defs>
        <path fill="#FFF" d="M9.35 12.6h-.7q-.35-.6-1.3-.6-.8 0-1.2.6H5.4q-.55 0-1 .4-.4.4-.4 1v3.95q0 .55.4 1 .45.4 1 .4h3.95q.6 0 1-.4.4-.45.4-1V14q0-.6-.4-1t-1-.4m0 1q.4 0 .4.4v3.95q0 .4-.4.4H5.4q-.4 0-.4-.4V14q0-.4.4-.4h1.5l.05-.45q.15-.15.5-.15t.35.15l.1.45h1.45m1.4-12.2q0-.55-.4-1-.4-.4-1-.4H5.4q-.55 0-1 .4-.4.45-.4 1v3.95q0 .6.4 1 .45.4 1 .4h.75q.4.6 1.2.6h.1q.85 0 1.2-.6h.7q.6 0 1-.4t.4-1V1.4M6.9 5.75H5.4q-.4 0-.4-.4V1.4q0-.4.4-.4h3.95q.4 0 .4.4v3.95q0 .4-.4.4H7.9l-.1.45q0 .15-.35.15h-.1q-.25 0-.4-.15l-.05-.45M7 9H6v1h1V9m2 0H8v1h1V9M3 9H2v1h1V9M1 9H0v1h1V9m4 0H4v1h1V9m6 1V9h-1v1h1m2-1h-1v1h1V9m2 0h-1v1h1V9z" id="a"/>
    </defs>
    <use xlink:href="#a"/>
</svg>
