<svg xmlns="http://www.w3.org/2000/svg" width="30.024" height="31" viewBox="-0.00020536659576464444 0.5119999647140503 30.02420425415039 30">
    <path opacity=".5" fill="#fff" d="M5.924.512h14.1v29.6h-14.1z"/>
    <path stroke-miterlimit="10" fill="none" stroke="#fff" d="M5.924.512h14.1v30h-14.1z"/>
    <path d="M21.824 12.012v1.8h4.9c-8 7.1-20.3 8.8-23.5 7.2-1.1-.6-1.6-1.3-1.6-2.2.1-1.2 1-1.9 1.4-2.3.3-.3.7-.5.5-1.2-.3-.7-.8-.6-.8-.6-.9.4-2.5 1.9-2.7 3.7-.1 1 0 2.9 2.5 4.1 1 .5 2.5.8 4.4.8 5.6 0 14.1-2.4 20.4-7.8l-1.1 4.4 1.6.5 2.2-8.4h-8.2z" fill="#fff"/>
</svg>