<svg xmlns="http://www.w3.org/2000/svg" width="24.3" height="24.3" viewBox="0 0 24.299999237060547 24.299997329711914">
    <path d="M22.3 10.1H20c-.2-.8-.4-1.6-.8-2.3l1.5-1.5c.8-.8.8-2.1 0-2.8-.8-.8-2.1-.8-2.8 0l-1.3 1.3c-.7-.5-1.6-.9-2.5-1.2V2c0-1.1-.9-2-2-2s-2 .9-2 2v1.4c-1 .2-2 .6-2.8 1.1l-1-1c-.8-.8-2.1-.8-2.8 0-.8.8-.8 2.1 0 2.8l1 1c-.5.8-.9 1.8-1.1 2.8H2c-1.1 0-2 .9-2 2s.9 2 2 2h1.6c.3.9.7 1.7 1.2 2.5l-1.3 1.3c-.8.8-.8 2.1 0 2.8.8.8 2.1.8 2.8 0l1.5-1.5c.7.4 1.5.6 2.3.8v2.3c0 1.1.9 2 2 2s2-.9 2-2v-2.5c.7-.2 1.4-.5 2-.9l1.8 1.8c.8.8 2.1.8 2.8 0 .8-.8.8-2.1 0-2.8l-1.8-1.8c.4-.6.7-1.3.9-2h2.5c1.1 0 2-.9 2-2s-.9-2-2-2zm-10.6 8.1c-3.6 0-6.5-2.9-6.5-6.5 0-3.5 2.8-6.4 6.4-6.5h.7c3.3.3 5.9 3.1 5.9 6.4 0 3.7-2.9 6.6-6.5 6.6z" fill="#fff"/>
</svg>