<svg viewBox="0 0 100 100" xmlns="http://www.w3.org/2000/svg">
    <path fill="currentColor" d="M91.826 5.975V71.59c0 3.27-2.367 7.328-5.186 8.906L55.186 98.422c-2.818 1.578-7.554 1.578-10.372 0L13.36 80.496c-2.819-1.578-5.186-5.637-5.186-8.906V5.975C8.174 2.705 10.879 0 14.149 0h71.59c3.269 0 6.087 2.706 6.087 5.975zm-42.502 6.652v39.346c0-.902-4.06-1.24-6.652-.676-5.975 1.127-9.245 6.087-8.23 11.048.902 4.96 5.411 7.666 11.387 6.539 5.186-1.015 7.102-4.51 7.102-9.47V27.959c3.608 0 14.43 9.245 8.568 25.029h1.128c11.612-25.705-12.402-27.396-12.289-40.361h-1.014z" />
</svg>
