<svg xmlns="http://www.w3.org/2000/svg" viewBox="0.0037200956139713526 15.51523208618164 99.99427795410156 69.01691436767578">
    <path d="M96.36 15.578c.482.364-1.022 4.662 1.616 4.046-.928 2.6-3.32 2.664-3.64 5.257-.48 3.9 3.683 6.84 5.662 9.31-1.108 4.01-6.57 4.39-9.306 1.62-2.7.6-5.217-.26-7.278.81-4.985 2.59-2.82 11.99-4.854 18.2-1.86 5.68-5.606 6.75-6.877 10.52.79 3.49-.203 6.6.404 9.31.652 2.9 3.83 4.34 3.643 7.28-.652.61-2.03-.35-3.643 0-.773-2.06-1.865-3.8-3.236-5.26-.21-2.61.48-6.13-.4-8.09-3.34 4.35-.76 11.6 2.43 14.16-5.76 2.05-7.63-5.22-6.06-10.52-1.67-2.77-4.11-4.78-3.64-9.7-3.4-.584-6.61 1.217-10.11 1.617-9.48 1.09-19.49-1.13-27.91-2.02-1.77 3.433-2.41 8.175-1.62 12.54.76 4.166 5.07 6.87 6.07 9.705-9.66 1.77-7.41-10.85-12.54-14.56.24-3 1-5.48.81-8.9-1.69 3.52-5.77 8.073-6.07 12.943-.22 3.68 2.12 5.92 3.24 9.306H8.59c-.71-2.27-.85-3.326-.81-6.47.045-3.55-1.86-8.07-1.618-10.92.22-2.58 2.68-4.82 2.83-7.28.17-2.77-1.58-6.1-2.43-8.9-.847-2.804-1.47-5.96-3.64-7.687-.87 12.36 2.374 24.368.81 34.787-3.235-1.14-2.02-5.47-2.02-8.09 0-5.69-.11-10.68-.405-16.583-.434-8.685-2.702-17.604 0-22.65 12.972-4.32 29.737-.415 47.326-1.213 8.607-.39 18.315-.41 23.46-1.62 2.5-.59 4.495-2.76 7.28-2.02 0-2.02-2.1-3.645-.81-5.664 2.038.123 3.02 1.3 4.857 1.62 2.467-1.984 3.336-5.565 8.494-4.855-.78 1.515-4.062.52-3.64 3.238 2.9.73 7.296-.52 8.09-3.234z" />
</svg>
